<svg xmlns="http://www.w3.org/2000/svg" version="1.0" width="100.000000pt" height="100.000000pt" viewBox="0 0 100.000000 100.000000" preserveAspectRatio="xMidYMid meet">

<g transform="translate(0.000000,100.000000) scale(0.100000,-0.100000)" fill="#00ff00" stroke="none">
<path d="M374 778 c-153 -157 -201 -226 -183 -260 8 -15 22 -18 93 -18 l82 0 13 -152 c17 -201 17 -204 52 -218 38 -16 145 -8 165 12 11 11 19 50 25 134 6 66 12 143 15 172 l5 52 78 0 c78 0 101 9 101 40 0 25 -83 129 -191 238 -79 78 -108 102 -129 102 -20 0 -49 -23 -126 -102z" fill="#00ff00"/>
</g>
</svg>